<?xml version="1.0" encoding="UTF-8"?>
<svg height="128px" viewBox="0 0 128 128" width="128px" xmlns="http://www.w3.org/2000/svg" xmlns:xlink="http://www.w3.org/1999/xlink">
    <linearGradient id="a" gradientTransform="matrix(0.178571 0 0 0.342105 8.179353 273.740051)" gradientUnits="userSpaceOnUse" x1="88.595886" x2="536.595886" y1="-449.394012" y2="-449.394012">
        <stop offset="0" stop-color="#5e5c64"/>
        <stop offset="0.0500001" stop-color="#c0bfbc"/>
        <stop offset="0.099807" stop-color="#5e5c64"/>
        <stop offset="0.900001" stop-color="#5e5c64"/>
        <stop offset="0.950001" stop-color="#c0bfbc"/>
        <stop offset="1" stop-color="#5e5c64"/>
    </linearGradient>
    <linearGradient id="b" gradientUnits="userSpaceOnUse">
        <stop offset="0" stop-color="#77767b"/>
        <stop offset="0.0357143" stop-color="#c0bfbc"/>
        <stop offset="0.0713653" stop-color="#9a9996"/>
        <stop offset="0.928571" stop-color="#9a9996"/>
        <stop offset="0.964286" stop-color="#c0bfbc"/>
        <stop offset="1" stop-color="#77767b"/>
    </linearGradient>
    <linearGradient id="c" gradientTransform="matrix(0.0535714 0 0 0.0263158 31.253794 107.826172)" x1="88.595886" x2="536.595886" xlink:href="#b" y1="-449.394012" y2="-449.394012"/>
    <linearGradient id="d" gradientTransform="matrix(0.0535714 0 0 0.0263158 63.253794 107.826172)" x1="88.595886" x2="536.595886" xlink:href="#b" y1="-449.394012" y2="-449.394012"/>
    <linearGradient id="e" gradientTransform="matrix(0.0535714 0 0 0.0263158 31.253794 87.826172)" x1="88.595886" x2="536.595886" xlink:href="#b" y1="-449.394012" y2="-449.394012"/>
    <linearGradient id="f" gradientTransform="matrix(1.521128 0 0 0.507043 33 -136.892876)" x1="23.009235" x2="38.786995" xlink:href="#b" y1="404.093842" y2="404.093842"/>
    <path d="m 31.273438 16 h 65.453124 c 4.015626 0 7.273438 3.582031 7.273438 8 v 88 c 0 4.417969 -3.257812 8 -7.273438 8 h -65.453124 c -4.015626 0 -7.273438 -3.582031 -7.273438 -8 v -88 c 0 -4.417969 3.257812 -8 7.273438 -8 z m 0 0" fill="url(#a)"/>
    <path d="m 31.273437 8 h 65.453125 c 4.015625 0 7.273438 3.449219 7.273438 7.703125 v 88.59375 c 0 4.253906 -3.257813 7.703125 -7.273438 7.703125 h -65.453125 c -4.015625 0 -7.273437 -3.449219 -7.273437 -7.703125 v -88.59375 c 0 -4.253906 3.257812 -7.703125 7.273437 -7.703125 z m 0 0" fill="#9a9996" stroke="#9a9996" stroke-width="0.233909"/>
    <path d="m 34.546875 12 h 58.90625 c 3.617187 0 6.546875 3.183594 6.546875 7.109375 v 81.78125 c 0 3.925781 -2.929688 7.109375 -6.546875 7.109375 h -58.90625 c -3.617187 0 -6.546875 -3.183594 -6.546875 -7.109375 v -81.78125 c 0 -3.925781 2.929688 -7.109375 6.546875 -7.109375 z m 0 0" fill="#3d3846"/>
    <path d="m 37.714844 88 h 20.570312 c 0.949219 0 1.714844 0.378906 1.714844 0.84375 v 6.3125 c 0 0.464844 -0.765625 0.84375 -1.714844 0.84375 h -20.570312 c -0.949219 0 -1.714844 -0.378906 -1.714844 -0.84375 v -6.3125 c 0 -0.464844 0.765625 -0.84375 1.714844 -0.84375 z m 0 0" fill="url(#c)"/>
    <path d="m 37.714844 84 h 20.570312 c 0.949219 0 1.714844 0.339844 1.714844 0.761719 v 6.476562 c 0 0.421875 -0.765625 0.761719 -1.714844 0.761719 h -20.570312 c -0.949219 0 -1.714844 -0.339844 -1.714844 -0.761719 v -6.476562 c 0 -0.421875 0.765625 -0.761719 1.714844 -0.761719 z m 0 0" fill="#deddda"/>
    <path d="m 69.714844 88 h 20.570312 c 0.949219 0 1.714844 0.378906 1.714844 0.84375 v 6.3125 c 0 0.464844 -0.765625 0.84375 -1.714844 0.84375 h -20.570312 c -0.949219 0 -1.714844 -0.378906 -1.714844 -0.84375 v -6.3125 c 0 -0.464844 0.765625 -0.84375 1.714844 -0.84375 z m 0 0" fill="url(#d)"/>
    <path d="m 69.714844 84 h 20.570312 c 0.949219 0 1.714844 0.339844 1.714844 0.761719 v 6.476562 c 0 0.421875 -0.765625 0.761719 -1.714844 0.761719 h -20.570312 c -0.949219 0 -1.714844 -0.339844 -1.714844 -0.761719 v -6.476562 c 0 -0.421875 0.765625 -0.761719 1.714844 -0.761719 z m 0 0" fill="#deddda"/>
    <path d="m 37.714844 68 h 20.570312 c 0.949219 0 1.714844 0.378906 1.714844 0.84375 v 6.3125 c 0 0.464844 -0.765625 0.84375 -1.714844 0.84375 h -20.570312 c -0.949219 0 -1.714844 -0.378906 -1.714844 -0.84375 v -6.3125 c 0 -0.464844 0.765625 -0.84375 1.714844 -0.84375 z m 0 0" fill="url(#e)"/>
    <path d="m 37.714844 64 h 20.570312 c 0.949219 0 1.714844 0.339844 1.714844 0.761719 v 6.476562 c 0 0.421875 -0.765625 0.761719 -1.714844 0.761719 h -20.570312 c -0.949219 0 -1.714844 -0.339844 -1.714844 -0.761719 v -6.476562 c 0 -0.421875 0.765625 -0.761719 1.714844 -0.761719 z m 0 0" fill="#deddda"/>
    <path d="m 69.714844 68 h 20.570312 c 0.949219 0 1.714844 0.378906 1.714844 0.84375 v 6.3125 c 0 0.464844 -0.765625 0.84375 -1.714844 0.84375 h -20.570312 c -0.949219 0 -1.714844 -0.378906 -1.714844 -0.84375 v -6.3125 c 0 -0.464844 0.765625 -0.84375 1.714844 -0.84375 z m 0 0" fill="url(#f)"/>
    <path d="m 69.714844 64 h 20.570312 c 0.949219 0 1.714844 0.339844 1.714844 0.761719 v 6.476562 c 0 0.421875 -0.765625 0.761719 -1.714844 0.761719 h -20.570312 c -0.949219 0 -1.714844 -0.339844 -1.714844 -0.761719 v -6.476562 c 0 -0.421875 0.765625 -0.761719 1.714844 -0.761719 z m 0 0" fill="#deddda"/>
    <path d="m 92 42 c 0 7.730469 -6.269531 14 -14 14 s -14 -6.269531 -14 -14 s 6.269531 -14 14 -14 s 14 6.269531 14 14 z m 0 0" fill="#a51d2d"/>
    <path d="m 92 38 c 0 7.730469 -6.269531 14 -14 14 s -14 -6.269531 -14 -14 s 6.269531 -14 14 -14 s 14 6.269531 14 14 z m 0 0" fill="#e01b24"/>
    <g fill="none" stroke="#3d3846" stroke-linecap="round">
        <path d="m 83.679688 31.902344 c 1.691406 1.574219 2.652344 3.785156 2.652344 6.097656 c 0 4.601563 -3.730469 8.332031 -8.332032 8.332031 c -4.601562 0 -8.332031 -3.730468 -8.332031 -8.332031 c 0 -2.3125 0.957031 -4.519531 2.648438 -6.09375" stroke-width="3.33334"/>
        <path d="m 78 28 v 8" stroke-linejoin="round" stroke-width="4"/>
    </g>
</svg>
