<?xml version="1.0" encoding="UTF-8"?>
<svg height="128px" viewBox="0 0 128 128" width="128px" xmlns="http://www.w3.org/2000/svg" xmlns:xlink="http://www.w3.org/1999/xlink">
    <filter id="a" height="100%" width="100%" x="0%" y="0%">
        <feColorMatrix color-interpolation-filters="sRGB" values="0 0 0 0 1 0 0 0 0 1 0 0 0 0 1 0 0 0 1 0"/>
    </filter>
    <linearGradient id="b" gradientTransform="matrix(0.178571 0 0 0.342105 8.179353 273.740051)" gradientUnits="userSpaceOnUse" x1="88.595886" x2="536.595886" y1="-449.394012" y2="-449.394012">
        <stop offset="0" stop-color="#5e5c64"/>
        <stop offset="0.0500001" stop-color="#c0bfbc"/>
        <stop offset="0.099807" stop-color="#5e5c64"/>
        <stop offset="0.900001" stop-color="#5e5c64"/>
        <stop offset="0.950001" stop-color="#c0bfbc"/>
        <stop offset="1" stop-color="#5e5c64"/>
    </linearGradient>
    <linearGradient id="c" gradientUnits="userSpaceOnUse">
        <stop offset="0" stop-color="#77767b"/>
        <stop offset="0.0357143" stop-color="#c0bfbc"/>
        <stop offset="0.0713653" stop-color="#9a9996"/>
        <stop offset="0.928571" stop-color="#9a9996"/>
        <stop offset="0.964286" stop-color="#c0bfbc"/>
        <stop offset="1" stop-color="#77767b"/>
    </linearGradient>
    <linearGradient id="d" gradientTransform="matrix(0.0535714 0 0 0.0263158 31.253794 107.826172)" x1="88.595886" x2="536.595886" xlink:href="#c" y1="-449.394012" y2="-449.394012"/>
    <linearGradient id="e" gradientTransform="matrix(0.0535714 0 0 0.0263158 63.253794 107.826172)" x1="88.595886" x2="536.595886" xlink:href="#c" y1="-449.394012" y2="-449.394012"/>
    <linearGradient id="f" gradientTransform="matrix(0.0535714 0 0 0.0263158 31.253794 87.826172)" x1="88.595886" x2="536.595886" xlink:href="#c" y1="-449.394012" y2="-449.394012"/>
    <linearGradient id="g" gradientTransform="matrix(1.521128 0 0 0.507043 33 -136.892876)" x1="23.009235" x2="38.786995" xlink:href="#c" y1="404.093842" y2="404.093842"/>
    <clipPath id="h">
        <rect height="128" width="128"/>
    </clipPath>
    <clipPath id="i">
        <rect height="128" width="128"/>
    </clipPath>
    <mask id="j">
        <g filter="url(#a)">
            <g clip-path="url(#i)" filter="url(#a)">
                <g clip-path="url(#h)">
                    <path d="m 31.273438 16 h 65.453124 c 4.015626 0 7.273438 3.582031 7.273438 8 v 88 c 0 4.417969 -3.257812 8 -7.273438 8 h -65.453124 c -4.015626 0 -7.273438 -3.582031 -7.273438 -8 v -88 c 0 -4.417969 3.257812 -8 7.273438 -8 z m 0 0" fill="url(#b)"/>
                    <path d="m 18.273956 136 h 65.453125 c 4.015625 0 7.273438 3.449219 7.273438 7.703125 v 88.59375 c 0 4.253906 -3.257813 7.703125 -7.273438 7.703125 h -65.453125 c -4.015625 0 -7.273437 -3.449219 -7.273437 -7.703125 v -88.59375 c 0 -4.253906 3.257812 -7.703125 7.273437 -7.703125 z m 0 0" fill="#9a9996" stroke="#9a9996" stroke-width="0.233909" transform="matrix(1 0 0 1 12.999481 -128)"/>
                    <path d="m 34.546875 12 h 58.90625 c 3.617187 0 6.546875 3.183594 6.546875 7.109375 v 81.78125 c 0 3.925781 -2.929688 7.109375 -6.546875 7.109375 h -58.90625 c -3.617187 0 -6.546875 -3.183594 -6.546875 -7.109375 v -81.78125 c 0 -3.925781 2.929688 -7.109375 6.546875 -7.109375 z m 0 0" fill="#3d3846"/>
                    <path d="m 37.714844 88 h 20.570312 c 0.949219 0 1.714844 0.378906 1.714844 0.84375 v 6.3125 c 0 0.464844 -0.765625 0.84375 -1.714844 0.84375 h -20.570312 c -0.949219 0 -1.714844 -0.378906 -1.714844 -0.84375 v -6.3125 c 0 -0.464844 0.765625 -0.84375 1.714844 -0.84375 z m 0 0" fill="url(#d)"/>
                    <path d="m 37.714844 84 h 20.570312 c 0.949219 0 1.714844 0.339844 1.714844 0.761719 v 6.476562 c 0 0.421875 -0.765625 0.761719 -1.714844 0.761719 h -20.570312 c -0.949219 0 -1.714844 -0.339844 -1.714844 -0.761719 v -6.476562 c 0 -0.421875 0.765625 -0.761719 1.714844 -0.761719 z m 0 0" fill="#deddda"/>
                    <path d="m 69.714844 88 h 20.570312 c 0.949219 0 1.714844 0.378906 1.714844 0.84375 v 6.3125 c 0 0.464844 -0.765625 0.84375 -1.714844 0.84375 h -20.570312 c -0.949219 0 -1.714844 -0.378906 -1.714844 -0.84375 v -6.3125 c 0 -0.464844 0.765625 -0.84375 1.714844 -0.84375 z m 0 0" fill="url(#e)"/>
                    <path d="m 69.714844 84 h 20.570312 c 0.949219 0 1.714844 0.339844 1.714844 0.761719 v 6.476562 c 0 0.421875 -0.765625 0.761719 -1.714844 0.761719 h -20.570312 c -0.949219 0 -1.714844 -0.339844 -1.714844 -0.761719 v -6.476562 c 0 -0.421875 0.765625 -0.761719 1.714844 -0.761719 z m 0 0" fill="#deddda"/>
                    <path d="m 37.714844 68 h 20.570312 c 0.949219 0 1.714844 0.378906 1.714844 0.84375 v 6.3125 c 0 0.464844 -0.765625 0.84375 -1.714844 0.84375 h -20.570312 c -0.949219 0 -1.714844 -0.378906 -1.714844 -0.84375 v -6.3125 c 0 -0.464844 0.765625 -0.84375 1.714844 -0.84375 z m 0 0" fill="url(#f)"/>
                    <path d="m 37.714844 64 h 20.570312 c 0.949219 0 1.714844 0.339844 1.714844 0.761719 v 6.476562 c 0 0.421875 -0.765625 0.761719 -1.714844 0.761719 h -20.570312 c -0.949219 0 -1.714844 -0.339844 -1.714844 -0.761719 v -6.476562 c 0 -0.421875 0.765625 -0.761719 1.714844 -0.761719 z m 0 0" fill="#deddda"/>
                    <path d="m 69.714844 68 h 20.570312 c 0.949219 0 1.714844 0.378906 1.714844 0.84375 v 6.3125 c 0 0.464844 -0.765625 0.84375 -1.714844 0.84375 h -20.570312 c -0.949219 0 -1.714844 -0.378906 -1.714844 -0.84375 v -6.3125 c 0 -0.464844 0.765625 -0.84375 1.714844 -0.84375 z m 0 0" fill="url(#g)"/>
                    <path d="m 69.714844 64 h 20.570312 c 0.949219 0 1.714844 0.339844 1.714844 0.761719 v 6.476562 c 0 0.421875 -0.765625 0.761719 -1.714844 0.761719 h -20.570312 c -0.949219 0 -1.714844 -0.339844 -1.714844 -0.761719 v -6.476562 c 0 -0.421875 0.765625 -0.761719 1.714844 -0.761719 z m 0 0" fill="#deddda"/>
                    <path d="m 92 42 c 0 7.730469 -6.269531 14 -14 14 s -14 -6.269531 -14 -14 s 6.269531 -14 14 -14 s 14 6.269531 14 14 z m 0 0" fill="#a51d2d"/>
                    <path d="m 92 38 c 0 7.730469 -6.269531 14 -14 14 s -14 -6.269531 -14 -14 s 6.269531 -14 14 -14 s 14 6.269531 14 14 z m 0 0" fill="#e01b24"/>
                    <path d="m 67.700321 156.035674 c 1.691406 1.574219 2.652344 3.785156 2.652344 6.097656 c 0 4.601563 -3.730469 8.332031 -8.332032 8.332031 c -4.601562 0 -8.332031 -3.730468 -8.332031 -8.332031 c 0 -2.3125 0.957031 -4.519531 2.648438 -6.09375" fill="none" stroke="#3d3846" stroke-linecap="round" stroke-width="3.33334" transform="matrix(1 0 0 1 15.979367 -124.13333)"/>
                    <path d="m 65.000519 156 v 8" fill="none" stroke="#3d3846" stroke-linecap="round" stroke-linejoin="round" stroke-width="4" transform="matrix(1 0 0 1 12.999481 -128)"/>
                </g>
            </g>
        </g>
    </mask>
    <mask id="k">
        <g filter="url(#a)">
            <rect fill-opacity="0.8" height="184.32" width="184.32" x="-28.16" y="-28.16"/>
        </g>
    </mask>
    <linearGradient id="l" gradientTransform="matrix(0 0.37 -0.98462 0 295.38501 -30.360001)" gradientUnits="userSpaceOnUse" x1="300" x2="428" y1="235" y2="235">
        <stop offset="0" stop-color="#f9f06b"/>
        <stop offset="1" stop-color="#f5c211"/>
    </linearGradient>
    <clipPath id="m">
        <rect height="128" width="128"/>
    </clipPath>
    <clipPath id="n">
        <rect height="128" width="128"/>
    </clipPath>
    <path d="m 31.273438 16 h 65.453124 c 4.015626 0 7.273438 3.582031 7.273438 8 v 88 c 0 4.417969 -3.257812 8 -7.273438 8 h -65.453124 c -4.015626 0 -7.273438 -3.582031 -7.273438 -8 v -88 c 0 -4.417969 3.257812 -8 7.273438 -8 z m 0 0" fill="url(#b)"/>
    <path d="m 31.273437 8 h 65.453125 c 4.015625 0 7.273438 3.449219 7.273438 7.703125 v 88.59375 c 0 4.253906 -3.257813 7.703125 -7.273438 7.703125 h -65.453125 c -4.015625 0 -7.273437 -3.449219 -7.273437 -7.703125 v -88.59375 c 0 -4.253906 3.257812 -7.703125 7.273437 -7.703125 z m 0 0" fill="#9a9996" stroke="#9a9996" stroke-width="0.233909"/>
    <path d="m 34.546875 12 h 58.90625 c 3.617187 0 6.546875 3.183594 6.546875 7.109375 v 81.78125 c 0 3.925781 -2.929688 7.109375 -6.546875 7.109375 h -58.90625 c -3.617187 0 -6.546875 -3.183594 -6.546875 -7.109375 v -81.78125 c 0 -3.925781 2.929688 -7.109375 6.546875 -7.109375 z m 0 0" fill="#3d3846"/>
    <path d="m 37.714844 88 h 20.570312 c 0.949219 0 1.714844 0.378906 1.714844 0.84375 v 6.3125 c 0 0.464844 -0.765625 0.84375 -1.714844 0.84375 h -20.570312 c -0.949219 0 -1.714844 -0.378906 -1.714844 -0.84375 v -6.3125 c 0 -0.464844 0.765625 -0.84375 1.714844 -0.84375 z m 0 0" fill="url(#d)"/>
    <path d="m 37.714844 84 h 20.570312 c 0.949219 0 1.714844 0.339844 1.714844 0.761719 v 6.476562 c 0 0.421875 -0.765625 0.761719 -1.714844 0.761719 h -20.570312 c -0.949219 0 -1.714844 -0.339844 -1.714844 -0.761719 v -6.476562 c 0 -0.421875 0.765625 -0.761719 1.714844 -0.761719 z m 0 0" fill="#deddda"/>
    <path d="m 69.714844 88 h 20.570312 c 0.949219 0 1.714844 0.378906 1.714844 0.84375 v 6.3125 c 0 0.464844 -0.765625 0.84375 -1.714844 0.84375 h -20.570312 c -0.949219 0 -1.714844 -0.378906 -1.714844 -0.84375 v -6.3125 c 0 -0.464844 0.765625 -0.84375 1.714844 -0.84375 z m 0 0" fill="url(#e)"/>
    <path d="m 69.714844 84 h 20.570312 c 0.949219 0 1.714844 0.339844 1.714844 0.761719 v 6.476562 c 0 0.421875 -0.765625 0.761719 -1.714844 0.761719 h -20.570312 c -0.949219 0 -1.714844 -0.339844 -1.714844 -0.761719 v -6.476562 c 0 -0.421875 0.765625 -0.761719 1.714844 -0.761719 z m 0 0" fill="#deddda"/>
    <path d="m 37.714844 68 h 20.570312 c 0.949219 0 1.714844 0.378906 1.714844 0.84375 v 6.3125 c 0 0.464844 -0.765625 0.84375 -1.714844 0.84375 h -20.570312 c -0.949219 0 -1.714844 -0.378906 -1.714844 -0.84375 v -6.3125 c 0 -0.464844 0.765625 -0.84375 1.714844 -0.84375 z m 0 0" fill="url(#f)"/>
    <path d="m 37.714844 64 h 20.570312 c 0.949219 0 1.714844 0.339844 1.714844 0.761719 v 6.476562 c 0 0.421875 -0.765625 0.761719 -1.714844 0.761719 h -20.570312 c -0.949219 0 -1.714844 -0.339844 -1.714844 -0.761719 v -6.476562 c 0 -0.421875 0.765625 -0.761719 1.714844 -0.761719 z m 0 0" fill="#deddda"/>
    <path d="m 69.714844 68 h 20.570312 c 0.949219 0 1.714844 0.378906 1.714844 0.84375 v 6.3125 c 0 0.464844 -0.765625 0.84375 -1.714844 0.84375 h -20.570312 c -0.949219 0 -1.714844 -0.378906 -1.714844 -0.84375 v -6.3125 c 0 -0.464844 0.765625 -0.84375 1.714844 -0.84375 z m 0 0" fill="url(#g)"/>
    <path d="m 69.714844 64 h 20.570312 c 0.949219 0 1.714844 0.339844 1.714844 0.761719 v 6.476562 c 0 0.421875 -0.765625 0.761719 -1.714844 0.761719 h -20.570312 c -0.949219 0 -1.714844 -0.339844 -1.714844 -0.761719 v -6.476562 c 0 -0.421875 0.765625 -0.761719 1.714844 -0.761719 z m 0 0" fill="#deddda"/>
    <path d="m 92 42 c 0 7.730469 -6.269531 14 -14 14 s -14 -6.269531 -14 -14 s 6.269531 -14 14 -14 s 14 6.269531 14 14 z m 0 0" fill="#a51d2d"/>
    <path d="m 92 38 c 0 7.730469 -6.269531 14 -14 14 s -14 -6.269531 -14 -14 s 6.269531 -14 14 -14 s 14 6.269531 14 14 z m 0 0" fill="#e01b24"/>
    <path d="m 83.679688 31.902344 c 1.691406 1.574219 2.652344 3.785156 2.652344 6.097656 c 0 4.601563 -3.730469 8.332031 -8.332032 8.332031 c -4.601562 0 -8.332031 -3.730468 -8.332031 -8.332031 c 0 -2.3125 0.957031 -4.519531 2.648438 -6.09375" fill="none" stroke="#3d3846" stroke-linecap="round" stroke-width="3.33334"/>
    <path d="m 78 28 v 8" fill="none" stroke="#3d3846" stroke-linecap="round" stroke-linejoin="round" stroke-width="4"/>
    <g mask="url(#j)">
        <g clip-path="url(#n)">
            <g mask="url(#k)">
                <g clip-path="url(#m)">
                    <path d="m 128 80.640625 v 47.359375 h -128 v -47.359375 z m 0 0" fill="url(#l)"/>
                    <path d="m 13.308594 80.640625 l 47.355468 47.359375 h 21.214844 l -47.359375 -47.359375 z m 42.421875 0 l 47.363281 47.359375 h 21.214844 l -47.363282 -47.359375 z m 42.429687 0 l 29.839844 29.839844 v -21.210938 l -8.628906 -8.628906 z m -98.160156 7.90625 v 21.214844 l 18.238281 18.238281 h 21.214844 z m 0 0"/>
                </g>
            </g>
        </g>
    </g>
</svg>
