<?xml version="1.0" encoding="UTF-8"?>
<svg height="128px" viewBox="0 0 128 128" width="128px" xmlns="http://www.w3.org/2000/svg" xmlns:xlink="http://www.w3.org/1999/xlink">
    <linearGradient id="a" gradientUnits="userSpaceOnUse" x1="8.0000415" x2="120.0000415" y1="115.999977" y2="115.999977">
        <stop offset="0" stop-color="#63452c"/>
        <stop offset="0.0357143" stop-color="#c0bfbc"/>
        <stop offset="0.0713653" stop-color="#63452c"/>
        <stop offset="0.928571" stop-color="#63452c"/>
        <stop offset="0.964286" stop-color="#c0bfbc"/>
        <stop offset="1" stop-color="#63452c"/>
    </linearGradient>
    <radialGradient id="b" cx="14.596683" cy="245.502411" gradientTransform="matrix(2.2 0.08 -0.0118707 0.326444 -25.19842 -1.310623)" gradientUnits="userSpaceOnUse" r="50">
        <stop offset="0" stop-color="#26a269"/>
        <stop offset="0.0727273" stop-color="#2ec27e"/>
        <stop offset="0.545455" stop-color="#2ec27e"/>
        <stop offset="1" stop-color="#26a269"/>
    </radialGradient>
    <linearGradient id="c" gradientUnits="userSpaceOnUse">
        <stop offset="0" stop-color="#eef4fc"/>
        <stop offset="1" stop-color="#ffffff"/>
    </linearGradient>
    <linearGradient id="d" gradientTransform="matrix(0.205128 0 0 0.181818 12.564104 32.363632)" x1="85" x2="85" xlink:href="#c" y1="107.162453" y2="86"/>
    <linearGradient id="e" gradientTransform="matrix(0.205128 0 0 0.181818 32.564102 44.363632)" x1="85" x2="85" xlink:href="#c" y1="107.162453" y2="86"/>
    <linearGradient id="f" gradientTransform="matrix(0.205128 0 0 0.181818 52.564102 36.363632)" x1="85" x2="85" xlink:href="#c" y1="107.162453" y2="86"/>
    <radialGradient id="g" cx="97.5" cy="222.5" gradientUnits="userSpaceOnUse" r="12">
        <stop offset="0"/>
        <stop offset="1" stop-opacity="0"/>
    </radialGradient>
    <radialGradient id="h" cx="93.63636" cy="222" gradientTransform="matrix(1.833333 -0.00000073 -0.00000049 1.916666 -71.16655 -380.999817)" gradientUnits="userSpaceOnUse" r="12">
        <stop offset="0" stop-color="#fdfacf"/>
        <stop offset="0.472377" stop-color="#f9f06b"/>
        <stop offset="1" stop-color="#e5a50a"/>
    </radialGradient>
    <path d="m 16 40 h 96 c 4.417969 0 8 3.582031 8 8 v 60 c 0 4.417969 -3.582031 8 -8 8 h -96 c -4.417969 0 -8 -3.582031 -8 -8 v -60 c 0 -4.417969 3.582031 -8 8 -8 z m 0 0" fill="url(#a)"/>
    <path d="m 16 28 h 96 c 4.417969 0 8 3.582031 8 8 v 68 c 0 4.417969 -3.582031 8 -8 8 h -96 c -4.417969 0 -8 -3.582031 -8 -8 v -68 c 0 -4.417969 3.582031 -8 8 -8 z m 0 0" fill="#986a44"/>
    <path d="m 17.714844 30 h 92.570312 c 4.261719 0 7.714844 3.410156 7.714844 7.617188 v 64.765624 c 0 4.207032 -3.453125 7.617188 -7.714844 7.617188 h -92.570312 c -4.261719 0 -7.714844 -3.410156 -7.714844 -7.617188 v -64.765624 c 0 -4.207032 3.453125 -7.617188 7.714844 -7.617188 z m 0 0" fill="#63452c"/>
    <path d="m 19.429688 32 h 89.140624 c 4.105469 0 7.429688 3.242188 7.429688 7.238281 v 61.523438 c 0 3.996093 -3.324219 7.238281 -7.429688 7.238281 h -89.140624 c -4.105469 0 -7.429688 -3.242188 -7.429688 -7.238281 v -61.523438 c 0 -3.996093 3.324219 -7.238281 7.429688 -7.238281 z m 0 0" fill="#986a44"/>
    <path d="m 21.144531 34 h 85.710938 c 3.945312 0 7.144531 3.070312 7.144531 6.855469 v 58.289062 c 0 3.785157 -3.199219 6.855469 -7.144531 6.855469 h -85.710938 c -3.945312 0 -7.144531 -3.070312 -7.144531 -6.855469 v -58.289062 c 0 -3.785157 3.199219 -6.855469 7.144531 -6.855469 z m 0 0" fill="#1c71d8"/>
    <path d="m 49.332031 73.332031 c -12 0 -23.664062 1.335938 -35.332031 2.667969 h 66.457031 c -8.523437 -1.503906 -19.949219 -2.664062 -31.125 -2.667969 z m 31.125 2.667969 h -66.457031 v 23.144531 c 0 3.796875 3.183594 6.855469 7.140625 6.855469 h 85.714844 c 3.960937 0 7.144531 -3.058594 7.144531 -6.855469 v -15.144531 c -4.332031 -0.667969 -8.667969 -1.332031 -13.332031 -2.667969 c -4.667969 -1.332031 -9.667969 -3.332031 -18.335938 -5 c -0.59375 -0.113281 -1.246093 -0.222656 -1.875 -0.332031 z m 0 0" fill="url(#b)"/>
    <path d="m 32.257812 44 c -1.605468 0 -3.058593 0.832031 -3.726562 2.121094 c -0.433594 -0.199219 -0.914062 -0.300782 -1.402344 -0.304688 c -1.621094 0.003906 -2.960937 1.117188 -3.066406 2.546875 c -0.003906 0 -0.007812 0 -0.011719 0 c -1.132812 0 -2.050781 0.8125 -2.050781 1.820313 c 0 1.003906 0.917969 1.816406 2.050781 1.816406 h 11.488281 c 1.359376 0 2.460938 -0.976562 2.460938 -2.183594 c 0 -0.925781 -0.660156 -1.75 -1.648438 -2.054687 c 0.003907 -0.042969 0.007813 -0.082031 0.007813 -0.125 c 0 -2.007813 -1.835937 -3.636719 -4.101563 -3.636719 z m 0 0" fill="url(#d)"/>
    <path d="m 52.257812 56 c -1.605468 0 -3.058593 0.832031 -3.726562 2.121094 c -0.433594 -0.199219 -0.914062 -0.300782 -1.402344 -0.304688 c -1.621094 0.003906 -2.960937 1.117188 -3.066406 2.546875 c -0.003906 0 -0.007812 0 -0.011719 0 c -1.132812 0 -2.050781 0.8125 -2.050781 1.820313 c 0 1.003906 0.917969 1.816406 2.050781 1.816406 h 11.488281 c 1.359376 0 2.460938 -0.976562 2.460938 -2.183594 c 0 -0.925781 -0.660156 -1.75 -1.648438 -2.054687 c 0.003907 -0.042969 0.007813 -0.082031 0.007813 -0.125 c 0 -2.007813 -1.835937 -3.636719 -4.101563 -3.636719 z m 0 0" fill="url(#e)"/>
    <path d="m 72.257812 48 c -1.605468 0 -3.058593 0.832031 -3.726562 2.121094 c -0.433594 -0.199219 -0.914062 -0.300782 -1.402344 -0.304688 c -1.621094 0.003906 -2.960937 1.117188 -3.066406 2.546875 c -0.003906 0 -0.007812 0 -0.011719 0 c -1.132812 0 -2.050781 0.8125 -2.050781 1.820313 c 0 1.003906 0.917969 1.816406 2.050781 1.816406 h 11.488281 c 1.359376 0 2.460938 -0.976562 2.460938 -2.183594 c 0 -0.925781 -0.660156 -1.75 -1.648438 -2.054687 c 0.003907 -0.042969 0.007813 -0.082031 0.007813 -0.125 c 0 -2.007813 -1.835937 -3.636719 -4.101563 -3.636719 z m 0 0" fill="url(#f)"/>
    <path d="m 109.5 222.5 c 0 6.628906 -5.371094 12 -12 12 s -12 -5.371094 -12 -12 s 5.371094 -12 12 -12 s 12 5.371094 12 12 z m 0 0" fill="none" stroke="url(#g)" stroke-linecap="square" transform="matrix(1 0 0 1 0 -172)"/>
    <path d="m 109.5 50.5 c 0 6.628906 -5.371094 12 -12 12 s -12 -5.371094 -12 -12 s 5.371094 -12 12 -12 s 12 5.371094 12 12 z m 0 0" fill="url(#h)"/>
</svg>
