<?xml version="1.0" encoding="UTF-8"?>
<svg height="128px" viewBox="0 0 128 128" width="128px" xmlns="http://www.w3.org/2000/svg" xmlns:xlink="http://www.w3.org/1999/xlink">
    <filter id="a" height="100%" width="100%" x="0%" y="0%">
        <feColorMatrix color-interpolation-filters="sRGB" values="0 0 0 0 1 0 0 0 0 1 0 0 0 0 1 0 0 0 1 0"/>
    </filter>
    <linearGradient id="b" gradientTransform="matrix(0.178571 0 0 0.342105 8.179353 273.740051)" gradientUnits="userSpaceOnUse" x1="88.595886" x2="536.595886" y1="-449.394012" y2="-449.394012">
        <stop offset="0" stop-color="#5e5c64"/>
        <stop offset="0.0500001" stop-color="#c0bfbc"/>
        <stop offset="0.099807" stop-color="#5e5c64"/>
        <stop offset="0.900001" stop-color="#5e5c64"/>
        <stop offset="0.950001" stop-color="#c0bfbc"/>
        <stop offset="1" stop-color="#5e5c64"/>
    </linearGradient>
    <linearGradient id="c" gradientUnits="userSpaceOnUse">
        <stop offset="0" stop-color="#77767b"/>
        <stop offset="0.0357143" stop-color="#c0bfbc"/>
        <stop offset="0.0713653" stop-color="#9a9996"/>
        <stop offset="0.928571" stop-color="#9a9996"/>
        <stop offset="0.964286" stop-color="#c0bfbc"/>
        <stop offset="1" stop-color="#77767b"/>
    </linearGradient>
    <linearGradient id="d" gradientTransform="matrix(0.0535714 0 0 0.0341198 30.253819 117.35965)" x1="88.595886" x2="536.595886" xlink:href="#c" y1="-449.394012" y2="-449.394012"/>
    <linearGradient id="e" gradientTransform="matrix(0.0535714 0 0 0.0341198 64.25382 117.333221)" x1="88.595886" x2="536.595886" xlink:href="#c" y1="-449.394012" y2="-449.394012"/>
    <linearGradient id="f" gradientTransform="matrix(0.0535714 0 0 0.0341198 30.253822 93.333221)" x1="88.595886" x2="536.595886" xlink:href="#c" y1="-449.394012" y2="-449.394012"/>
    <linearGradient id="g" gradientTransform="matrix(1.521128 0 0 0.657407 34.000029 -198.052856)" x1="23.009235" x2="38.786995" xlink:href="#c" y1="404.093842" y2="404.093842"/>
    <clipPath id="h">
        <rect height="128" width="128"/>
    </clipPath>
    <clipPath id="i">
        <rect height="128" width="128"/>
    </clipPath>
    <mask id="j">
        <g filter="url(#a)">
            <g clip-path="url(#i)" filter="url(#a)">
                <g clip-path="url(#h)">
                    <path d="m 31.273438 16 h 65.453124 c 4.015626 0 7.273438 3.582031 7.273438 8 v 88 c 0 4.417969 -3.257812 8 -7.273438 8 h -65.453124 c -4.015626 0 -7.273438 -3.582031 -7.273438 -8 v -88 c 0 -4.417969 3.257812 -8 7.273438 -8 z m 0 0" fill="url(#b)"/>
                    <path d="m 18.273956 136 h 65.453125 c 4.015625 0 7.273438 3.449219 7.273438 7.703125 v 88.59375 c 0 4.253906 -3.257813 7.703125 -7.273438 7.703125 h -65.453125 c -4.015625 0 -7.273437 -3.449219 -7.273437 -7.703125 v -88.59375 c 0 -4.253906 3.257812 -7.703125 7.273437 -7.703125 z m 0 0" fill="#9a9996" stroke="#9a9996" stroke-width="0.233909" transform="matrix(1 0 0 1 12.999481 -128)"/>
                    <path d="m 34.546875 12 h 58.90625 c 3.617187 0 6.546875 3.183594 6.546875 7.109375 v 81.78125 c 0 3.925781 -2.929688 7.109375 -6.546875 7.109375 h -58.90625 c -3.617187 0 -6.546875 -3.183594 -6.546875 -7.109375 v -81.78125 c 0 -3.925781 2.929688 -7.109375 6.546875 -7.109375 z m 0 0" fill="#3d3846"/>
                    <path d="m 36.714844 91.652344 h 20.570312 c 0.949219 0 1.714844 0.492187 1.714844 1.09375 v 8.1875 c 0 0.605468 -0.765625 1.09375 -1.714844 1.09375 h -20.570312 c -0.949219 0 -1.714844 -0.488282 -1.714844 -1.09375 v -8.1875 c 0 -0.601563 0.765625 -1.09375 1.714844 -1.09375 z m 0 0" fill="url(#d)"/>
                    <path d="m 36.714844 88 h 20.570312 c 0.949219 0 1.714844 0.425781 1.714844 0.953125 v 8.117187 c 0 0.527344 -0.765625 0.957032 -1.714844 0.957032 h -20.570312 c -0.949219 0 -1.714844 -0.429688 -1.714844 -0.957032 v -8.117187 c 0 -0.527344 0.765625 -0.953125 1.714844 -0.953125 z m 0 0" fill="#deddda"/>
                    <path d="m 70.714844 91.628906 h 20.570312 c 0.949219 0 1.714844 0.488282 1.714844 1.089844 v 8.1875 c 0 0.605469 -0.765625 1.09375 -1.714844 1.09375 h -20.570312 c -0.949219 0 -1.714844 -0.488281 -1.714844 -1.09375 v -8.1875 c 0 -0.601562 0.765625 -1.089844 1.714844 -1.089844 z m 0 0" fill="url(#e)"/>
                    <path d="m 70.714844 87.972656 h 20.570312 c 0.949219 0 1.714844 0.429688 1.714844 0.957032 v 8.117187 c 0 0.527344 -0.765625 0.953125 -1.714844 0.953125 h -20.570312 c -0.949219 0 -1.714844 -0.425781 -1.714844 -0.953125 v -8.117187 c 0 -0.527344 0.765625 -0.957032 1.714844 -0.957032 z m 0 0" fill="#deddda"/>
                    <path d="m 36.714844 67.628906 h 20.570312 c 0.949219 0 1.714844 0.488282 1.714844 1.089844 v 8.1875 c 0 0.605469 -0.765625 1.09375 -1.714844 1.09375 h -20.570312 c -0.949219 0 -1.714844 -0.488281 -1.714844 -1.09375 v -8.1875 c 0 -0.601562 0.765625 -1.089844 1.714844 -1.089844 z m 0 0" fill="url(#f)"/>
                    <path d="m 36.714844 63.972656 h 20.570312 c 0.949219 0 1.714844 0.429688 1.714844 0.957032 v 8.117187 c 0 0.527344 -0.765625 0.953125 -1.714844 0.953125 h -20.570312 c -0.949219 0 -1.714844 -0.425781 -1.714844 -0.953125 v -8.117187 c 0 -0.527344 0.765625 -0.957032 1.714844 -0.957032 z m 0 0" fill="#deddda"/>
                    <path d="m 70.714844 67.601562 h 20.570312 c 0.949219 0 1.714844 0.488282 1.714844 1.089844 v 8.191406 c 0 0.601563 -0.765625 1.089844 -1.714844 1.089844 h -20.570312 c -0.949219 0 -1.714844 -0.488281 -1.714844 -1.089844 v -8.191406 c 0 -0.601562 0.765625 -1.089844 1.714844 -1.089844 z m 0 0" fill="url(#g)"/>
                    <path d="m 70.714844 63.945312 h 20.570312 c 0.949219 0 1.714844 0.429688 1.714844 0.957032 v 8.117187 c 0 0.527344 -0.765625 0.953125 -1.714844 0.953125 h -20.570312 c -0.949219 0 -1.714844 -0.425781 -1.714844 -0.953125 v -8.117187 c 0 -0.527344 0.765625 -0.957032 1.714844 -0.957032 z m 0 0" fill="#deddda"/>
                    <path d="m 93.105469 38.949219 c 0 9.417969 -7.636719 17.050781 -17.054688 17.050781 c -9.414062 0 -17.050781 -7.632812 -17.050781 -17.050781 s 7.636719 -17.054688 17.050781 -17.054688 c 9.417969 0 17.054688 7.636719 17.054688 17.054688 z m 0 0" fill="#a51d2d"/>
                    <path d="m 93.050781 33.949219 c 0 9.417969 -7.632812 17.050781 -17.050781 17.050781 s -17.050781 -7.632812 -17.050781 -17.050781 s 7.632812 -17.054688 17.050781 -17.054688 s 17.050781 7.636719 17.050781 17.054688 z m 0 0" fill="#e01b24"/>
                    <path d="m 76.019531 21 c -0.945312 0 -1.714843 0.777344 -1.714843 1.734375 v 8.664063 c 0 0.957031 0.769531 1.734374 1.714843 1.734374 c 0.945313 0 1.714844 -0.777343 1.714844 -1.734374 v -8.664063 c 0 -0.957031 -0.769531 -1.734375 -1.714844 -1.734375 z m -5.378906 3.148438 c -0.21875 0.027343 -0.433594 0.101562 -0.628906 0.214843 c -4.6875 2.742188 -6.984375 8.351563 -5.585938 13.644531 c 1.40625 5.289063 6.164063 8.984376 11.574219 8.992188 c 5.417969 0.007812 10.1875 -3.675781 11.601562 -8.957031 c 1.417969 -5.289063 -0.859374 -10.902344 -5.539062 -13.65625 c -0.816406 -0.488281 -1.871094 -0.210938 -2.34375 0.621093 c -0.230469 0.394532 -0.296875 0.867188 -0.183594 1.3125 c 0.121094 0.449219 0.402344 0.828126 0.796875 1.058594 c 3.355469 1.976563 4.976563 5.964844 3.964844 9.757813 c -1.015625 3.78125 -4.40625 6.402343 -8.285156 6.398437 c -3.882813 -0.007812 -7.265625 -2.636718 -8.269531 -6.425781 c -1.003907 -3.792969 0.621093 -7.78125 3.984374 -9.746094 c 0.816407 -0.480469 1.097657 -1.535156 0.625 -2.363281 c -0.230468 -0.398438 -0.597656 -0.6875 -1.039062 -0.804688 c -0.214844 -0.0625 -0.441406 -0.074218 -0.671875 -0.046874 z m 0 0" fill="#2e3436"/>
                </g>
            </g>
        </g>
    </mask>
    <mask id="k">
        <g filter="url(#a)">
            <rect fill-opacity="0.8" height="184.32" width="184.32" x="-28.16" y="-28.16"/>
        </g>
    </mask>
    <linearGradient id="l" gradientTransform="matrix(0 0.37 -0.98462 0 295.38501 -30.360001)" gradientUnits="userSpaceOnUse" x1="300" x2="428" y1="235" y2="235">
        <stop offset="0" stop-color="#f9f06b"/>
        <stop offset="1" stop-color="#f5c211"/>
    </linearGradient>
    <clipPath id="m">
        <rect height="128" width="128"/>
    </clipPath>
    <clipPath id="n">
        <rect height="128" width="128"/>
    </clipPath>
    <path d="m 31.273438 16 h 65.453124 c 4.015626 0 7.273438 3.582031 7.273438 8 v 88 c 0 4.417969 -3.257812 8 -7.273438 8 h -65.453124 c -4.015626 0 -7.273438 -3.582031 -7.273438 -8 v -88 c 0 -4.417969 3.257812 -8 7.273438 -8 z m 0 0" fill="url(#b)"/>
    <path d="m 31.273437 8 h 65.453125 c 4.015625 0 7.273438 3.449219 7.273438 7.703125 v 88.59375 c 0 4.253906 -3.257813 7.703125 -7.273438 7.703125 h -65.453125 c -4.015625 0 -7.273437 -3.449219 -7.273437 -7.703125 v -88.59375 c 0 -4.253906 3.257812 -7.703125 7.273437 -7.703125 z m 0 0" fill="#9a9996" stroke="#9a9996" stroke-width="0.233909"/>
    <path d="m 34.546875 12 h 58.90625 c 3.617187 0 6.546875 3.183594 6.546875 7.109375 v 81.78125 c 0 3.925781 -2.929688 7.109375 -6.546875 7.109375 h -58.90625 c -3.617187 0 -6.546875 -3.183594 -6.546875 -7.109375 v -81.78125 c 0 -3.925781 2.929688 -7.109375 6.546875 -7.109375 z m 0 0" fill="#3d3846"/>
    <path d="m 36.714844 91.652344 h 20.570312 c 0.949219 0 1.714844 0.492187 1.714844 1.09375 v 8.1875 c 0 0.605468 -0.765625 1.09375 -1.714844 1.09375 h -20.570312 c -0.949219 0 -1.714844 -0.488282 -1.714844 -1.09375 v -8.1875 c 0 -0.601563 0.765625 -1.09375 1.714844 -1.09375 z m 0 0" fill="url(#d)"/>
    <path d="m 36.714844 88 h 20.570312 c 0.949219 0 1.714844 0.425781 1.714844 0.953125 v 8.117187 c 0 0.527344 -0.765625 0.957032 -1.714844 0.957032 h -20.570312 c -0.949219 0 -1.714844 -0.429688 -1.714844 -0.957032 v -8.117187 c 0 -0.527344 0.765625 -0.953125 1.714844 -0.953125 z m 0 0" fill="#deddda"/>
    <path d="m 70.714844 91.628906 h 20.570312 c 0.949219 0 1.714844 0.488282 1.714844 1.089844 v 8.1875 c 0 0.605469 -0.765625 1.09375 -1.714844 1.09375 h -20.570312 c -0.949219 0 -1.714844 -0.488281 -1.714844 -1.09375 v -8.1875 c 0 -0.601562 0.765625 -1.089844 1.714844 -1.089844 z m 0 0" fill="url(#e)"/>
    <path d="m 70.714844 87.972656 h 20.570312 c 0.949219 0 1.714844 0.429688 1.714844 0.957032 v 8.117187 c 0 0.527344 -0.765625 0.953125 -1.714844 0.953125 h -20.570312 c -0.949219 0 -1.714844 -0.425781 -1.714844 -0.953125 v -8.117187 c 0 -0.527344 0.765625 -0.957032 1.714844 -0.957032 z m 0 0" fill="#deddda"/>
    <path d="m 36.714844 67.628906 h 20.570312 c 0.949219 0 1.714844 0.488282 1.714844 1.089844 v 8.1875 c 0 0.605469 -0.765625 1.09375 -1.714844 1.09375 h -20.570312 c -0.949219 0 -1.714844 -0.488281 -1.714844 -1.09375 v -8.1875 c 0 -0.601562 0.765625 -1.089844 1.714844 -1.089844 z m 0 0" fill="url(#f)"/>
    <path d="m 36.714844 63.972656 h 20.570312 c 0.949219 0 1.714844 0.429688 1.714844 0.957032 v 8.117187 c 0 0.527344 -0.765625 0.953125 -1.714844 0.953125 h -20.570312 c -0.949219 0 -1.714844 -0.425781 -1.714844 -0.953125 v -8.117187 c 0 -0.527344 0.765625 -0.957032 1.714844 -0.957032 z m 0 0" fill="#deddda"/>
    <path d="m 70.714844 67.601562 h 20.570312 c 0.949219 0 1.714844 0.488282 1.714844 1.089844 v 8.191406 c 0 0.601563 -0.765625 1.089844 -1.714844 1.089844 h -20.570312 c -0.949219 0 -1.714844 -0.488281 -1.714844 -1.089844 v -8.191406 c 0 -0.601562 0.765625 -1.089844 1.714844 -1.089844 z m 0 0" fill="url(#g)"/>
    <path d="m 70.714844 63.945312 h 20.570312 c 0.949219 0 1.714844 0.429688 1.714844 0.957032 v 8.117187 c 0 0.527344 -0.765625 0.953125 -1.714844 0.953125 h -20.570312 c -0.949219 0 -1.714844 -0.425781 -1.714844 -0.953125 v -8.117187 c 0 -0.527344 0.765625 -0.957032 1.714844 -0.957032 z m 0 0" fill="#deddda"/>
    <path d="m 93.105469 38.949219 c 0 9.417969 -7.636719 17.050781 -17.054688 17.050781 c -9.414062 0 -17.050781 -7.632812 -17.050781 -17.050781 s 7.636719 -17.054688 17.050781 -17.054688 c 9.417969 0 17.054688 7.636719 17.054688 17.054688 z m 0 0" fill="#a51d2d"/>
    <path d="m 93.050781 33.949219 c 0 9.417969 -7.632812 17.050781 -17.050781 17.050781 s -17.050781 -7.632812 -17.050781 -17.050781 s 7.632812 -17.054688 17.050781 -17.054688 s 17.050781 7.636719 17.050781 17.054688 z m 0 0" fill="#e01b24"/>
    <path d="m 76.019531 21 c -0.945312 0 -1.714843 0.777344 -1.714843 1.734375 v 8.664063 c 0 0.957031 0.769531 1.734374 1.714843 1.734374 c 0.945313 0 1.714844 -0.777343 1.714844 -1.734374 v -8.664063 c 0 -0.957031 -0.769531 -1.734375 -1.714844 -1.734375 z m -5.378906 3.148438 c -0.21875 0.027343 -0.433594 0.101562 -0.628906 0.214843 c -4.6875 2.742188 -6.984375 8.351563 -5.585938 13.644531 c 1.40625 5.289063 6.164063 8.984376 11.574219 8.992188 c 5.417969 0.007812 10.1875 -3.675781 11.601562 -8.957031 c 1.417969 -5.289063 -0.859374 -10.902344 -5.539062 -13.65625 c -0.816406 -0.488281 -1.871094 -0.210938 -2.34375 0.621093 c -0.230469 0.394532 -0.296875 0.867188 -0.183594 1.3125 c 0.121094 0.449219 0.402344 0.828126 0.796875 1.058594 c 3.355469 1.976563 4.976563 5.964844 3.964844 9.757813 c -1.015625 3.78125 -4.40625 6.402343 -8.285156 6.398437 c -3.882813 -0.007812 -7.265625 -2.636718 -8.269531 -6.425781 c -1.003907 -3.792969 0.621093 -7.78125 3.984374 -9.746094 c 0.816407 -0.480469 1.097657 -1.535156 0.625 -2.363281 c -0.230468 -0.398438 -0.597656 -0.6875 -1.039062 -0.804688 c -0.214844 -0.0625 -0.441406 -0.074218 -0.671875 -0.046874 z m 0 0" fill="#2e3436"/>
    <g mask="url(#j)">
        <g clip-path="url(#n)">
            <g mask="url(#k)">
                <g clip-path="url(#m)">
                    <path d="m 128 80.640625 v 47.359375 h -128 v -47.359375 z m 0 0" fill="url(#l)"/>
                    <path d="m 13.308594 80.640625 l 47.355468 47.359375 h 21.214844 l -47.359375 -47.359375 z m 42.421875 0 l 47.363281 47.359375 h 21.214844 l -47.363282 -47.359375 z m 42.429687 0 l 29.839844 29.839844 v -21.210938 l -8.628906 -8.628906 z m -98.160156 7.90625 v 21.214844 l 18.238281 18.238281 h 21.214844 z m 0 0"/>
                </g>
            </g>
        </g>
    </g>
</svg>
