<?xml version="1.0" encoding="UTF-8"?>
<svg height="16px" viewBox="0 0 16 16" width="16px" xmlns="http://www.w3.org/2000/svg">
    <g fill="#241f31">
        <path d="m 8 3 c -0.3125 0 -0.570312 0.269531 -0.570312 0.601562 v 3 c 0 0.328126 0.257812 0.597657 0.570312 0.597657 c 0.316406 0 0.570312 -0.269531 0.570312 -0.597657 v -3 c 0 -0.332031 -0.253906 -0.601562 -0.570312 -0.601562 z m -1.792969 1.089844 c -0.074219 0.007812 -0.144531 0.035156 -0.207031 0.074218 c -1.5625 0.949219 -2.328125 2.890626 -1.863281 4.722657 c 0.46875 1.832031 2.054687 3.109375 3.855469 3.113281 c 1.808593 0.003906 3.394531 -1.273438 3.867187 -3.101562 c 0.472656 -1.828126 -0.285156 -3.773438 -1.847656 -4.726563 c -0.269531 -0.167969 -0.621094 -0.074219 -0.78125 0.214844 c -0.074219 0.136719 -0.097657 0.300781 -0.058594 0.457031 c 0.039063 0.152344 0.132813 0.285156 0.265625 0.363281 c 1.117188 0.683594 1.660156 2.066407 1.320312 3.378907 c -0.339843 1.308593 -1.46875 2.214843 -2.757812 2.214843 c -1.296875 -0.003906 -2.421875 -0.914062 -2.757812 -2.226562 c -0.335938 -1.3125 0.207031 -2.691407 1.328124 -3.371094 c 0.273438 -0.167969 0.367188 -0.53125 0.207032 -0.816406 c -0.074219 -0.140625 -0.199219 -0.242188 -0.347656 -0.28125 c -0.070313 -0.019531 -0.144532 -0.023438 -0.222657 -0.015625 z m 0 0"/>
        <path d="m 1 0.0078125 c -0.558594 0 -1.0117188 0.4531255 -1.0117188 1.0117185 v 13.960938 c 0 0.558593 0.4531248 1.011719 1.0117188 1.011719 h 13.960938 c 0.5625 0.003906 1.015624 -0.449219 1.015624 -1.011719 v -13.960938 c 0 -0.5625 -0.453124 -1.01562475 -1.015624 -1.0117185 z m 1.011719 2.0234375 h 11.9375 v 11.9375 h -11.9375 z m 0 0"/>
    </g>
</svg>
