<?xml version="1.0" encoding="UTF-8"?>
<svg height="16px" viewBox="0 0 16 16" width="16px" xmlns="http://www.w3.org/2000/svg">
    <g fill="#241f31">
        <path d="m 8 2 c -2.761719 0 -5 2.238281 -5 5 s 2.238281 5 5 5 s 5 -2.238281 5 -5 s -2.238281 -5 -5 -5 z m 0 2 c 1.65625 0 3 1.34375 3 3 s -1.34375 3 -3 3 s -3 -1.34375 -3 -3 s 1.34375 -3 3 -3 z m 0 0"/>
        <path d="m 2 14 h 4 c 0.550781 0 1 0.449219 1 1 s -0.449219 1 -1 1 h -4 c -0.550781 0 -1 -0.449219 -1 -1 s 0.449219 -1 1 -1 z m 0 0"/>
        <path d="m 10 14 h 4 c 0.550781 0 1 0.449219 1 1 s -0.449219 1 -1 1 h -4 c -0.550781 0 -1 -0.449219 -1 -1 s 0.449219 -1 1 -1 z m 0 0"/>
        <path d="m 8 1 c 0.550781 0 1 0.523438 1 1.167969 v 4.664062 c 0 0.644531 -0.449219 1.167969 -1 1.167969 s -1 -0.523438 -1 -1.167969 v -4.664062 c 0 -0.644531 0.449219 -1.167969 1 -1.167969 z m 0 0"/>
    </g>
</svg>
